<svg width="16" height="16" viewBox="0 0 16 16" fill="none" xmlns="http://www.w3.org/2000/svg">
<path d="M14.1889 12.4937C13.8521 11.6958 13.3632 10.971 12.7497 10.3597C12.1379 9.74673 11.4133 9.25797 10.6157 8.92046C10.6086 8.91689 10.6014 8.91511 10.5943 8.91154C11.7068 8.10796 12.43 6.79904 12.43 5.32225C12.43 2.87582 10.4479 0.893677 8.00144 0.893677C5.55501 0.893677 3.57287 2.87582 3.57287 5.32225C3.57287 6.79904 4.29608 8.10796 5.40858 8.91332C5.40144 8.91689 5.3943 8.91868 5.38715 8.92225C4.58715 9.25975 3.8693 9.74368 3.25323 10.3615C2.64021 10.9733 2.15145 11.6979 1.81394 12.4955C1.48237 13.2763 1.30355 14.1134 1.28715 14.9615C1.28668 14.9806 1.29002 14.9996 1.29699 15.0173C1.30395 15.0351 1.3144 15.0512 1.32771 15.0649C1.34103 15.0785 1.35694 15.0894 1.3745 15.0968C1.39207 15.1042 1.41095 15.108 1.43001 15.108H2.50144C2.58001 15.108 2.64251 15.0455 2.6443 14.9687C2.68001 13.5901 3.23358 12.299 4.21215 11.3205C5.22465 10.308 6.5693 9.75082 8.00144 9.75082C9.43358 9.75082 10.7782 10.308 11.7907 11.3205C12.7693 12.299 13.3229 13.5901 13.3586 14.9687C13.3604 15.0473 13.4229 15.108 13.5014 15.108H14.5729C14.5919 15.108 14.6108 15.1042 14.6284 15.0968C14.6459 15.0894 14.6619 15.0785 14.6752 15.0649C14.6885 15.0512 14.6989 15.0351 14.7059 15.0173C14.7129 14.9996 14.7162 14.9806 14.7157 14.9615C14.6979 14.108 14.5211 13.2776 14.1889 12.4937ZM8.00144 8.39368C7.1818 8.39368 6.41037 8.07404 5.83001 7.49368C5.24965 6.91332 4.93001 6.14189 4.93001 5.32225C4.93001 4.50261 5.24965 3.73118 5.83001 3.15082C6.41037 2.57046 7.1818 2.25082 8.00144 2.25082C8.82108 2.25082 9.59251 2.57046 10.1729 3.15082C10.7532 3.73118 11.0729 4.50261 11.0729 5.32225C11.0729 6.14189 10.7532 6.91332 10.1729 7.49368C9.59251 8.07404 8.82108 8.39368 8.00144 8.39368Z" fill="#8B1A47"/>
</svg>
