<svg width="24" height="32" viewBox="0 0 24 32" fill="none" xmlns="http://www.w3.org/2000/svg">
<path d="M22.8576 25.1388H22.0005V12.996C22.0005 7.95669 18.2755 3.79241 13.4291 3.09955V1.71026C13.4291 0.920978 12.7898 0.281693 12.0005 0.281693C11.2112 0.281693 10.5719 0.920978 10.5719 1.71026V3.09955C5.72549 3.79241 2.00049 7.95669 2.00049 12.996V25.1388H1.14335C0.511203 25.1388 0.000488281 25.6496 0.000488281 26.2817V27.4246C0.000488281 27.5817 0.12906 27.7103 0.286203 27.7103H8.00049C8.00049 29.9174 9.79335 31.7103 12.0005 31.7103C14.2076 31.7103 16.0005 29.9174 16.0005 27.7103H23.7148C23.8719 27.7103 24.0005 27.5817 24.0005 27.4246V26.2817C24.0005 25.6496 23.4898 25.1388 22.8576 25.1388ZM12.0005 29.4246C11.0541 29.4246 10.2862 28.6567 10.2862 27.7103H13.7148C13.7148 28.6567 12.9469 29.4246 12.0005 29.4246ZM4.57192 25.1388V12.996C4.57192 11.0103 5.34335 9.14598 6.74692 7.74241C8.15049 6.33884 10.0148 5.56741 12.0005 5.56741C13.9862 5.56741 15.8505 6.33884 17.2541 7.74241C18.6576 9.14598 19.4291 11.0103 19.4291 12.996V25.1388H4.57192Z" fill="#434343"/>
</svg>
