<svg width="42" height="42" viewBox="0 0 42 42" fill="none" xmlns="http://www.w3.org/2000/svg">
<path d="M23.5547 32.1392H24.7098L24.6174 32.6437C24.371 33.7445 23.9859 34.7688 23.4623 35.7166L23.4161 35.8542C23.3853 35.9154 23.3391 35.9765 23.2775 36.0377C22.723 37.0467 22.0145 37.964 21.152 38.7895C18.9034 40.8993 16.2544 41.9694 13.2049 42C13.174 42 13.1432 42 13.1124 42C13.0816 42 13.0508 42 13.02 42H12.9276C12.6812 42 12.4502 41.9847 12.2345 41.9541C12.0189 41.9236 11.8495 41.9083 11.7263 41.9083C11.3875 41.8777 11.0794 41.8318 10.8022 41.7707L10.6636 41.7248C8.6614 41.2968 6.87482 40.3948 5.30386 39.0188C3.76371 37.6123 2.67019 35.9307 2.02333 33.9738C1.59208 32.6896 1.37646 31.4054 1.37646 30.1212C1.37646 26.8496 2.51618 24.0519 4.79561 21.7281C7.10584 19.4043 9.87812 18.2424 13.1124 18.2424C13.174 18.2424 13.2202 18.2424 13.2511 18.2424H13.2973C15.6691 18.3036 17.8253 19.0068 19.7659 20.3522C21.7065 21.6975 23.1234 23.4862 24.0167 25.7183C24.1707 26.0546 24.294 26.4062 24.3864 26.7731C24.4788 27.2318 24.3864 27.614 24.1091 27.9197C23.8319 28.2561 23.4931 28.4243 23.0926 28.4243H10.294C10.294 30.9621 10.8792 32.9342 12.0497 34.3407C13.2202 35.7166 14.9144 36.4046 17.1322 36.4046C19.6581 36.4046 21.6603 35.2274 23.1388 32.8731C23.4161 32.445 23.5547 32.2004 23.5547 32.1392ZM13.5283 20.6274C12.5118 20.6274 11.7109 21.1013 11.1256 22.0491C10.5712 22.997 10.2786 24.3424 10.2478 26.0852H13.1124C14.0057 26.0852 14.745 25.7183 15.3303 24.9844C15.8847 24.2812 16.0541 23.4862 15.8385 22.5995C15.6845 21.8963 15.4227 21.3918 15.053 21.086C14.6834 20.7802 14.1751 20.6274 13.5283 20.6274Z" fill="#222C1F"/>
<path fill-rule="evenodd" clip-rule="evenodd" d="M13.0431 0C14.0975 0 14.9522 0.854729 14.9522 1.90909V15.2727H11.134V1.90909C11.134 0.854729 11.9888 0 13.0431 0Z" fill="#222C1F"/>
<path fill-rule="evenodd" clip-rule="evenodd" d="M29.0674 4.05886C29.9792 4.58526 30.2916 5.75113 29.7651 6.6629L23.0931 18.2192L19.7913 16.3129L26.4634 4.75661C26.9898 3.84484 28.1556 3.53245 29.0674 4.05886Z" fill="#222C1F"/>
<path fill-rule="evenodd" clip-rule="evenodd" d="M39.6704 16.1942C40.1968 17.106 39.8844 18.2719 38.9727 18.7983L27.4164 25.4703L25.5101 22.1685L37.0664 15.4965C37.9782 14.9701 39.144 15.2825 39.6704 16.1942Z" fill="#222C1F"/>
</svg>
