<svg width="220" height="68" viewBox="0 0 220 68" fill="none" xmlns="http://www.w3.org/2000/svg">
<path d="M42.3209 49.3106C42.3209 49.3591 42.3209 49.4562 42.3209 49.6017C42.3693 49.7473 42.3935 49.8685 42.3935 49.9656C42.4419 52.3428 41.9823 54.5987 41.0146 56.7333C40.0954 58.8194 38.8133 60.6145 37.1684 62.1184C35.5234 63.6709 33.564 64.8837 31.2901 65.757C29.0163 66.6302 26.0167 67.0669 22.2914 67.0669C20.6464 67.0669 18.9289 66.9213 17.1388 66.6303C15.3971 66.3392 13.5345 65.8298 11.5509 65.1021C9.56726 64.3258 7.77718 63.3798 6.18062 62.264C4.58406 61.0996 3.20521 59.5957 2.04408 57.7521C0.882946 55.8601 0.205617 53.7497 0.0120952 51.421C-0.0362854 50.7903 0.0604756 49.9413 0.302378 48.874C0.350759 48.6799 0.39914 48.4374 0.44752 48.1463C0.641043 47.4186 0.955516 46.7151 1.39094 46.0359C2.01989 44.9686 2.86655 44.1439 3.93092 43.5617C4.99529 42.931 6.13224 42.6157 7.34175 42.6157C7.82556 42.6157 8.30936 42.6642 8.79317 42.7612C11.8895 43.4889 13.6796 45.2839 14.1634 48.1463C14.5505 50.2324 14.115 52.0274 12.8571 53.5314C11.309 55.3264 10.9703 57.0487 11.8411 58.6982C12.0347 59.1348 12.3008 59.5714 12.6394 60.008C13.0265 60.4447 13.5828 60.9783 14.3086 61.609C15.0826 62.2397 16.0986 62.7734 17.3565 63.21C18.6144 63.5981 20.0417 63.7922 21.6382 63.7922C22.4123 63.7922 23.2348 63.7436 24.1056 63.6466C24.8313 63.5496 25.5087 63.404 26.1376 63.21C26.8149 62.9674 27.5406 62.6278 28.3147 62.1912C29.0888 61.706 29.6936 61.0511 30.129 60.2264C30.6128 59.4016 30.8547 58.4071 30.8547 57.2427C30.8547 55.1566 30.1048 53.4586 28.605 52.1487C27.0568 50.7903 24.5169 49.5047 20.9851 48.2918L15.4697 45.9631C14.8407 44.2651 13.5345 42.931 11.5509 41.9607C9.66402 41.0875 7.58366 40.9177 5.30977 41.4513C4.53568 40.9177 3.83416 40.2627 3.20521 39.4865C2.14084 38.3706 1.34256 37.085 0.810375 35.6296C0.278188 34.1742 0.0120952 32.5974 0.0120952 30.8994C0.0120952 28.4737 0.471711 26.2178 1.39094 24.1317C2.31017 22.0456 3.59226 20.2505 5.2372 18.7466C6.88214 17.1941 8.84155 15.9813 11.1154 15.108C13.3893 14.1862 15.8567 13.7254 18.5177 13.7254C20.598 13.6769 22.9203 13.8224 25.4845 14.162C28.5324 14.5501 32.8141 15.6659 38.3295 17.5095L38.8375 17.655L38.5472 26.9698L37.3861 26.0238C37.0474 25.7327 36.6362 25.4173 36.1524 25.0777C35.717 24.7381 34.7735 24.0832 33.3221 23.1129C31.8707 22.1426 30.4435 21.3179 29.0404 20.6387C27.6858 19.9109 26.065 19.256 24.1782 18.6738C22.2913 18.0431 20.5738 17.7278 19.0257 17.7278C16.7518 17.7278 14.9133 18.3585 13.5103 19.6199C12.204 20.7842 11.5509 22.3367 11.5509 24.2772C11.5509 25.9267 12.3008 27.3821 13.8006 28.6435C15.3971 30.0504 17.9371 31.3603 21.4205 32.5732C22.1946 32.8643 22.8961 33.1311 23.5251 33.3737L30.129 35.7751C32.7899 36.7454 35.0154 37.8612 36.8055 39.1226C37.7731 39.8503 38.5956 40.5781 39.2729 41.3058C41.0146 43.2949 42.0306 45.7448 42.3209 48.6557C42.3693 48.6557 42.3935 48.6799 42.3935 48.7285C42.3935 48.777 42.3693 48.971 42.3209 49.3106Z" fill="#222C1F"/>
<path d="M55.691 26.3876C53.7074 26.3876 52.014 25.7084 50.611 24.35C49.2563 22.9431 48.579 21.2451 48.579 19.256C48.579 17.9461 48.8935 16.7575 49.5224 15.6902C50.1514 14.5744 50.998 13.7011 52.0624 13.0704C53.1752 12.4397 54.3847 12.1244 55.691 12.1244C57.6746 12.1244 59.3437 12.8278 60.6983 14.2348C62.1014 15.5932 62.8029 17.2669 62.8029 19.256C62.8029 20.5659 62.4884 21.7787 61.8595 22.8946C61.2305 23.9619 60.3597 24.8109 59.2469 25.4416C58.1826 26.0723 56.9972 26.3876 55.691 26.3876ZM62.8755 55.7873C62.8755 56.612 63.0448 57.4125 63.3835 58.1888C63.7705 58.9165 64.2301 59.5229 64.7623 60.008C65.3429 60.4932 65.9718 60.8813 66.6492 61.1724C67.3749 61.4635 68.0764 61.609 68.7537 61.609V65.6842H62.8029H49.6676H43.7893V61.609C45.2408 61.609 46.5712 61.0511 47.7807 59.9353C49.0386 58.8194 49.6676 57.4368 49.6676 55.7873V43.9255C49.6192 43.1008 49.4015 42.3488 49.0144 41.6696C48.6758 40.9419 48.2162 40.3355 47.6356 39.8503C47.1034 39.3652 46.4986 39.0013 45.8213 38.7588C45.144 38.4677 44.4909 38.3221 43.8619 38.3221V34.2469L62.8029 27.4064V55.7873H62.8755Z" fill="#222C1F"/>
<path d="M110.273 55.7873C110.273 57.4853 110.805 58.8922 111.869 60.008C112.982 61.0754 114.167 61.609 115.425 61.609V65.6842H106.644H102.29H94.3072V61.609C95.9521 61.609 97.0649 61.1481 97.6454 60.2264C98.2744 59.2561 98.613 57.8492 98.6614 56.0056V42.0335C98.6614 41.985 98.6614 41.8152 98.6614 41.5241C98.7098 41.1845 98.734 40.9177 98.734 40.7236C98.734 40.481 98.7098 40.1657 98.6614 39.7776C98.613 39.3895 98.5405 39.0498 98.4437 38.7588C98.3953 38.4677 98.2744 38.1281 98.0808 37.74C97.9357 37.3518 97.7422 37.0608 97.5003 36.8667C97.2584 36.6726 96.9439 36.4543 96.5569 36.2118C96.1698 35.9692 95.7102 35.8722 95.178 35.9207C94.6942 35.9207 94.1136 35.9449 93.4363 35.9934C91.8398 36.236 90.4609 37.1335 89.2998 38.686C88.1386 40.2385 87.5581 41.9365 87.5581 43.78V55.7873C87.6065 55.7873 87.6065 55.9814 87.5581 56.3695C87.5097 56.7576 87.5581 57.2427 87.7032 57.8249C87.8967 58.4071 88.1144 58.9892 88.3564 59.5714C88.5983 60.1051 89.0337 60.5902 89.6626 61.0268C90.34 61.415 91.1382 61.609 92.0575 61.609V65.6842H87.5581H75.8742H70.7216V61.609C71.9795 61.609 73.1407 61.0511 74.205 59.9353C75.3178 58.8194 75.8742 57.4368 75.8742 55.7873V43.6345C75.8742 41.9364 75.3178 40.5538 74.205 39.4865C73.1407 38.3706 71.9795 37.8127 70.7216 37.8127V33.7375L75.8742 31.6999L87.5581 27.1153V35.193C90.0255 32.6702 92.4929 30.948 94.9603 30.0262C97.4277 29.0559 100.161 28.6678 103.161 28.8618C105.386 29.0559 107.201 30.1232 108.604 32.0638C109.184 32.8885 109.62 33.8831 109.91 35.0474C110.152 36.2118 110.273 37.7885 110.273 39.7776V55.7873Z" fill="#222C1F"/>
<path d="M150.38 28.9346H152.557V33.0098C151.009 33.0098 149.775 33.3494 148.856 34.0286C147.937 34.7078 147.114 35.7024 146.388 37.0122L131.584 67.358L116.562 36.4301C115.207 34.1499 113.272 33.0098 110.756 33.0098V28.9346H112.933H127.738H134.487V32.937C133.084 32.937 132.165 33.3979 131.729 34.3197C131.342 35.2415 131.584 36.7212 132.455 38.7588L134.051 42.6884C134.197 43.1251 134.172 43.5374 133.979 43.9255L129.77 52.7309C129.479 53.2645 129.479 53.8225 129.77 54.4046C130.537 55.9731 132.773 55.9716 133.538 54.4021L141.236 38.6132C142.881 34.8776 142.179 33.0098 139.131 33.0098V28.9346H146.026H150.38Z" fill="#222C1F"/>
<path d="M186.115 50.9116H187.929L187.784 51.7121C187.397 53.4586 186.792 55.0838 185.969 56.5878L185.897 56.8061C185.849 56.9031 185.776 57.0002 185.679 57.0972C184.808 58.6982 183.696 60.1536 182.341 61.4635C178.809 64.811 174.648 66.509 169.859 66.5575C169.81 66.5575 169.762 66.5575 169.714 66.5575C169.665 66.5575 169.617 66.5575 169.568 66.5575H169.423C169.036 66.5575 168.673 66.5332 168.335 66.4847C167.996 66.4362 167.73 66.4119 167.536 66.4119C167.004 66.3634 166.52 66.2906 166.085 66.1936L165.867 66.1208C162.723 65.4416 159.917 64.0105 157.449 61.8273C155.03 59.5957 153.313 56.9274 152.297 53.8225C151.619 51.7849 151.281 49.7473 151.281 47.7097C151.281 42.5186 153.071 38.0796 156.651 34.3925C160.279 30.7054 164.634 28.8618 169.714 28.8618C169.81 28.8618 169.883 28.8618 169.931 28.8618H170.004C173.729 28.9589 177.116 30.0747 180.164 32.2093C183.212 34.344 185.437 37.182 186.84 40.7236C187.082 41.2573 187.276 41.8152 187.421 42.3973C187.566 43.1251 187.421 43.7315 186.985 44.2166C186.55 44.7503 186.018 45.0171 185.389 45.0171H165.287C165.287 49.0438 166.206 52.173 168.044 54.4046C169.883 56.5878 172.544 57.6794 176.027 57.6794C179.994 57.6794 183.139 55.8116 185.461 52.0759C185.897 51.3967 186.115 51.0086 186.115 50.9116ZM170.367 32.646C168.77 32.646 167.512 33.3979 166.593 34.9019C165.722 36.4058 165.263 38.5404 165.214 41.3058H169.714C171.117 41.3058 172.278 40.7236 173.197 39.5592C174.068 38.4434 174.334 37.182 173.995 35.7751C173.753 34.6593 173.342 33.8588 172.762 33.3737C172.181 32.8885 171.383 32.646 170.367 32.646Z" fill="#222C1F"/>
<path fill-rule="evenodd" clip-rule="evenodd" d="M169.406 0C171.08 0 172.437 1.35707 172.437 3.03111V24.2489H166.375V3.03111C166.375 1.35707 167.732 0 169.406 0Z" fill="#222C1F"/>
<path fill-rule="evenodd" clip-rule="evenodd" d="M197.874 6.29873C199.322 7.13452 199.818 8.9856 198.982 10.4332L188.389 28.7814L183.146 25.7547L193.74 7.40657C194.575 5.95894 196.426 5.46294 197.874 6.29873Z" fill="#222C1F"/>
<path fill-rule="evenodd" clip-rule="evenodd" d="M217.735 28.5933C218.571 30.041 218.075 31.892 216.627 32.7278L198.279 43.3211L195.252 38.0788L213.601 27.4855C215.048 26.6497 216.899 27.1457 217.735 28.5933Z" fill="#222C1F"/>
</svg>
